<?xml version="1.0" encoding="utf-8"?>
<!-- Generator: Adobe Illustrator 25.4.1, SVG Export Plug-In . SVG Version: 6.00 Build 0)  -->
<svg version="1.1" id="Layer_1" xmlns="http://www.w3.org/2000/svg" xmlns:xlink="http://www.w3.org/1999/xlink" x="0px" y="0px"
	 viewBox="0 0 304.35 110.58" style="enable-background:new 0 0 304.35 110.58;" xml:space="preserve">
<g>
	<path d="M47.1,2.08c0,0-13.13,13.73-13.13,54.66S47.1,108.5,47.1,108.5S2.64,101.89,2.64,57.25C2.64,15.21,47.1,2.08,47.1,2.08z"/>
	<path d="M80.79,5.28c0,0,4.6,4.18,9.47,10.49s7.5,13.22,7.5,13.22V2.15c0,0-2.11,2.8-3.58,2.87C90.11,5.2,80.79,5.28,80.79,5.28z"
		/>
	<path d="M71.83,54.5h34.96l-3.11,3.74l0.13,41.94c0,0-6.77-4.72-12.74-4.88c-9.47-0.26-18.56,7.78-18.56,7.78l2.73-7.33l0.17-37.51
		L71.83,54.5z"/>
	<path d="M113.83,2.15l35.01,49.91v52.16L146,108.5h33.87l-2.1-4.28V52.06L155.99,9.5c-0.28-0.55-0.43-1.16-0.45-1.77L155.48,5
		c-0.01-0.51,0.14-1.01,0.44-1.42l1.04-1.43H113.83z"/>
	<path d="M189.63,2.08c0,0,4.53,4.82,5.05,6.15c0.52,1.33,0,6.76,0,6.76l11.95-12.91H189.63z"/>
	<path d="M214.62,2.15h34.8l-3.78,5.28l-0.09,85.77c0,0,1.25,8.28,7.82,11.26c7.51,3.41,20.2,3.12,20.2,3.12s-28.61,3.8-43.23-4.07
		c-12.52-6.75-12.29-13.6-12.29-13.6L217.2,6.83L214.62,2.15z"/>
	<path d="M282.68,2.15c0,0,4.38,2.8,6.02,4.75s4.55,7.06,4.55,7.06s2.23-5.44,3.78-7.23s4.61-4.58,4.61-4.58H282.68z"/>
</g>
</svg>
