<svg width="347" height="34" viewBox="0 0 347 34" fill="none" xmlns="http://www.w3.org/2000/svg">
<path d="M8.9597 26.2152C8.67369 26.2152 8.49858 26.0393 8.49858 25.7521V4.53724H0.426096C0.140086 4.53724 0 4.35552 0 4.07414V0.463104C0 0.175862 0.140086 0 0.426096 0H21.3398C21.6258 0 21.801 0.175862 21.801 0.463104V4.06828C21.801 4.35552 21.6258 4.53138 21.3398 4.53138H13.3024V25.7462C13.3024 26.0335 13.1273 26.2093 12.8413 26.2093H8.9597V26.2152Z" fill="black"/>
<path d="M26.2429 34C25.9219 34 25.7818 33.7831 25.8868 33.4665L29.2664 25.0369L21.871 8.25379C21.7309 7.93138 21.871 7.72034 22.2271 7.72034H26.6398C26.8908 7.72034 27.0659 7.82586 27.171 8.07793L31.6537 19.4386L36.0256 8.07793C36.1307 7.82586 36.3116 7.72034 36.5568 7.72034H40.6134C40.9345 7.72034 41.1096 7.93724 40.9695 8.25379L30.6556 33.6424C30.5505 33.8945 30.3696 34 30.1245 34H26.2429Z" fill="black"/>
<path d="M44.6292 26.2152C44.3432 26.2152 44.1681 26.0393 44.1681 25.7521V8.17758C44.1681 7.89034 44.3432 7.71448 44.6292 7.71448H47.9738C48.2598 7.71448 48.4699 7.85517 48.4699 8.17758L48.575 10.499C49.8182 8.5 51.9896 7.46241 54.1959 7.46241C54.7271 7.46241 55.0832 7.49758 55.4392 7.56793C55.7252 7.63827 55.8303 7.82 55.8303 8.0662V11.7476C55.8303 12.07 55.6552 12.1755 55.3342 12.1403C54.873 12.1052 54.336 11.9997 53.6298 11.9997C51.1374 11.9997 48.7909 13.7114 48.7909 16.6424V25.7521C48.7909 26.0393 48.6158 26.2152 48.3298 26.2152H44.6292Z" fill="black"/>
<path d="M57.5405 16.9648C57.5405 11.2845 60.8851 7.3569 66.1442 7.3569C68.7066 7.3569 70.8371 8.42965 72.1562 10.2469L72.2613 8.17758C72.2613 7.85517 72.4772 7.71448 72.7574 7.71448H76.102C76.388 7.71448 76.5631 7.89034 76.5631 8.17758V25.7521C76.5631 26.0393 76.388 26.2152 76.102 26.2152H72.7574C72.4714 26.2152 72.2613 26.0745 72.2613 25.7521L72.1562 23.6828C70.8429 25.5059 68.7066 26.5786 66.1442 26.5786C60.8851 26.5728 57.5405 22.6452 57.5405 16.9648ZM72.2613 16.9648C72.2613 13.7876 70.2359 11.5717 67.2824 11.5717C64.3289 11.5717 62.3035 13.7876 62.3035 16.9648C62.3035 20.1421 64.3289 22.3579 67.2824 22.3579C70.2359 22.3579 72.2613 20.1421 72.2613 16.9648Z" fill="black"/>
<path d="M81.863 26.2152C81.577 26.2152 81.4019 26.0393 81.4019 25.7521V8.17759C81.4019 7.89035 81.577 7.71448 81.863 7.71448H85.2076C85.4936 7.71448 85.7037 7.85517 85.7037 8.17759L85.8088 10.2821C87.163 8.31828 89.4744 7.35104 91.8208 7.35104C96.0876 7.35104 98.545 9.92448 98.545 14.1745V25.7462C98.545 26.0334 98.3699 26.2093 98.0839 26.2093H94.3833C94.0972 26.2093 93.9221 26.0334 93.9221 25.7462V16.0738C93.9221 13.0021 92.819 11.5717 90.4025 11.5717C88.1611 11.5717 86.0306 13.2483 86.0306 16.789V25.7521C86.0306 26.0393 85.8555 26.2152 85.5695 26.2152H81.863Z" fill="black"/>
<path d="M103.699 26.2152C103.413 26.2152 103.238 26.0393 103.238 25.7521V8.17759C103.238 7.89035 103.413 7.71448 103.699 7.71448H107.044C107.33 7.71448 107.54 7.85517 107.54 8.17759L107.645 10.2821C108.999 8.31828 111.31 7.35104 113.657 7.35104C117.924 7.35104 120.381 9.92448 120.381 14.1745V25.7462C120.381 26.0334 120.206 26.2093 119.92 26.2093H116.219C115.933 26.2093 115.758 26.0334 115.758 25.7462V16.0738C115.758 13.0021 114.655 11.5717 112.238 11.5717C109.997 11.5717 107.867 13.2483 107.867 16.789V25.7521C107.867 26.0393 107.691 26.2152 107.405 26.2152H103.699Z" fill="black"/>
<path d="M124.006 16.9648C124.006 11.3548 127.846 7.3569 133.748 7.3569C139.649 7.3569 143.489 11.3548 143.489 16.9648C143.489 22.5748 139.649 26.5728 133.748 26.5728C127.846 26.5728 124.006 22.5748 124.006 16.9648ZM138.732 16.9648C138.732 13.7876 136.707 11.5717 133.753 11.5717C130.8 11.5717 128.774 13.7876 128.774 16.9648C128.774 20.1421 130.8 22.3579 133.753 22.3579C136.707 22.3579 138.732 20.1421 138.732 16.9648Z" fill="black"/>
<path d="M153.809 26.2152C153.488 26.2152 153.313 25.9983 153.453 25.6817L163.872 0.357586C163.977 0.105517 164.158 0 164.403 0H167.713C167.964 0 168.139 0.105517 168.244 0.357586L178.663 25.6817C178.803 26.0041 178.628 26.2152 178.307 26.2152H173.824C173.573 26.2152 173.398 26.1097 173.293 25.8576L171.442 20.9628H160.597L158.747 25.8576C158.642 26.1097 158.461 26.2152 158.216 26.2152H153.809ZM162.273 16.5017H169.738L166.002 6.57138L162.273 16.5017Z" fill="black"/>
<path d="M182.328 34C182.042 34 181.867 33.8241 181.867 33.5369V8.17758C181.867 7.89034 182.042 7.71448 182.328 7.71448H185.673C185.959 7.71448 186.169 7.85517 186.169 8.17758L186.274 10.2469C187.588 8.42379 189.724 7.3569 192.286 7.3569C197.551 7.3569 200.896 11.2845 200.896 16.9648C200.896 22.6452 197.551 26.5728 192.286 26.5728C189.87 26.5728 187.839 25.6055 186.49 23.9641V33.5369C186.49 33.8241 186.315 34 186.029 34H182.328ZM196.127 16.9648C196.127 13.7876 194.102 11.5717 191.148 11.5717C188.195 11.5717 186.169 13.7876 186.169 16.9648C186.169 20.1421 188.195 22.3579 191.148 22.3579C194.102 22.3579 196.127 20.1421 196.127 16.9648Z" fill="black"/>
<path d="M203.598 16.9648C203.598 11.2845 206.943 7.3569 212.202 7.3569C214.764 7.3569 216.895 8.42965 218.214 10.2469L218.319 8.17758C218.319 7.85517 218.535 7.71448 218.815 7.71448H222.16C222.446 7.71448 222.621 7.89034 222.621 8.17758V25.7521C222.621 26.0393 222.446 26.2152 222.16 26.2152H218.815C218.529 26.2152 218.319 26.0745 218.319 25.7521L218.214 23.6828C216.901 25.5059 214.764 26.5786 212.202 26.5786C206.937 26.5728 203.598 22.6452 203.598 16.9648ZM218.319 16.9648C218.319 13.7876 216.293 11.5717 213.34 11.5717C210.387 11.5717 208.361 13.7876 208.361 16.9648C208.361 20.1421 210.387 22.3579 213.34 22.3579C216.293 22.3579 218.319 20.1421 218.319 16.9648Z" fill="black"/>
<path d="M227.921 26.2152C227.635 26.2152 227.46 26.0393 227.46 25.7521V8.17758C227.46 7.89034 227.635 7.71448 227.921 7.71448H231.265C231.551 7.71448 231.761 7.85517 231.761 8.17758L231.866 10.499C233.11 8.5 235.281 7.46241 237.487 7.46241C238.019 7.46241 238.375 7.49758 238.731 7.56793C239.017 7.63827 239.122 7.82 239.122 8.0662V11.7476C239.122 12.07 238.947 12.1755 238.626 12.1403C238.164 12.1052 237.627 11.9997 236.921 11.9997C234.429 11.9997 232.082 13.7114 232.082 16.6424V25.7521C232.082 26.0393 231.907 26.2152 231.621 26.2152H227.921Z" fill="black"/>
<path d="M244.317 19.0752V11.859H241.614C241.328 11.859 241.153 11.6831 241.153 11.3959V8.18345C241.153 7.89621 241.328 7.72035 241.614 7.72035H244.317V2.74931C244.317 2.46207 244.492 2.28621 244.778 2.28621H248.478C248.764 2.28621 248.939 2.46207 248.939 2.74931V7.71449H253.311C253.597 7.71449 253.772 7.89035 253.772 8.17759V11.39C253.772 11.6772 253.597 11.8531 253.311 11.8531H248.939V19.3507C248.939 21.3497 249.581 22.3521 251 22.3521C251.607 22.3521 252.033 22.1 252.389 21.461C252.529 21.209 252.745 21.1035 253.031 21.2441L255.804 22.4928C256.09 22.6335 256.16 22.8855 255.944 23.2431C254.63 25.67 252.599 26.5669 250.504 26.5669C246.517 26.5728 244.317 24.0755 244.317 19.0752Z" fill="black"/>
<path d="M259.002 26.2152C258.716 26.2152 258.541 26.0393 258.541 25.7521V8.17758C258.541 7.89034 258.716 7.71448 259.002 7.71448H262.347C262.633 7.71448 262.843 7.85517 262.843 8.17758L262.948 10.3934C264.261 8.39448 266.503 7.3569 268.779 7.3569C271.552 7.3569 273.583 8.57034 274.575 10.751C275.929 8.5 278.346 7.3569 280.868 7.3569C284.883 7.3569 287.341 9.93034 287.341 14.1803V25.7521C287.341 26.0393 287.166 26.2152 286.88 26.2152H283.179C282.893 26.2152 282.718 26.0393 282.718 25.7521V16.0738C282.718 13.0021 281.58 11.5717 279.443 11.5717C277.272 11.5717 275.247 13.2483 275.247 16.789V25.7521C275.247 26.0393 275.071 26.2152 274.785 26.2152H271.085C270.799 26.2152 270.624 26.0393 270.624 25.7521V16.0738C270.624 13.0021 269.486 11.5717 267.349 11.5717C265.178 11.5717 263.152 13.2483 263.152 16.789V25.7521C263.152 26.0393 262.977 26.2152 262.691 26.2152H259.002Z" fill="black"/>
<path d="M290.971 16.9648C290.971 11.3548 294.491 7.3569 300.287 7.3569C305.943 7.3569 309.177 11.5717 309.002 17.9262C308.967 18.2486 308.786 18.3893 308.505 18.3893H295.88C296.306 20.9276 297.871 22.4634 300.328 22.4634C302.213 22.4634 303.527 21.7483 304.385 20.359C304.525 20.1069 304.741 20.0717 304.992 20.1421L308.155 21.25C308.441 21.3555 308.546 21.5724 308.406 21.8597C306.772 25.1072 303.713 26.5728 300.299 26.5728C294.491 26.5728 290.971 22.5748 290.971 16.9648ZM304.058 14.9307C303.632 12.75 302.242 11.4662 300.252 11.4662C298.081 11.4662 296.516 12.7148 295.95 14.9307H304.058Z" fill="black"/>
<path d="M312.877 26.2152C312.591 26.2152 312.416 26.0393 312.416 25.7521V8.17759C312.416 7.89035 312.591 7.71448 312.877 7.71448H316.222C316.508 7.71448 316.718 7.85517 316.718 8.17759L316.823 10.2821C318.177 8.31828 320.489 7.35104 322.835 7.35104C327.102 7.35104 329.559 9.92448 329.559 14.1745V25.7462C329.559 26.0334 329.384 26.2093 329.098 26.2093H325.397C325.111 26.2093 324.936 26.0334 324.936 25.7462V16.0738C324.936 13.0021 323.833 11.5717 321.417 11.5717C319.175 11.5717 317.045 13.2483 317.045 16.789V25.7521C317.045 26.0393 316.87 26.2152 316.584 26.2152H312.877Z" fill="black"/>
<path d="M335.25 19.0752V11.859H332.548C332.262 11.859 332.087 11.6831 332.087 11.3959V8.18345C332.087 7.89621 332.262 7.72035 332.548 7.72035H335.25V2.74931C335.25 2.46207 335.425 2.28621 335.711 2.28621H339.412C339.698 2.28621 339.873 2.46207 339.873 2.74931V7.71449H344.245C344.531 7.71449 344.706 7.89035 344.706 8.17759V11.39C344.706 11.6772 344.531 11.8531 344.245 11.8531H339.873V19.3507C339.873 21.3497 340.515 22.3521 341.934 22.3521C342.541 22.3521 342.967 22.1 343.323 21.461C343.463 21.209 343.679 21.1035 343.965 21.2441L346.737 22.4928C347.023 22.6335 347.093 22.8855 346.877 23.2431C345.564 25.67 343.533 26.5669 341.437 26.5669C337.457 26.5728 335.25 24.0755 335.25 19.0752Z" fill="black"/>
</svg>
