<svg width="52" height="37" viewBox="0 0 52 37" fill="none" xmlns="http://www.w3.org/2000/svg">
<g opacity="0.9">
<path d="M51.1465 10.6324C44.625 4.06586 35.5884 0 25.6025 0C15.5864 0 6.52588 4.09033 0 10.6918L5.65674 16.3488C10.7349 11.195 17.7959 8 25.6025 8C33.3794 8 40.4155 11.1705 45.4893 16.2894L51.1465 10.6324Z" fill="black"/>
<path d="M41.9541 19.8249C37.7852 15.6108 31.9985 13 25.6025 13C19.1763 13 13.3657 15.6354 9.19238 19.8844L14.8496 25.5417C17.5747 22.7402 21.3857 21 25.6025 21C29.7896 21 33.5757 22.7155 36.2969 25.4819L41.9541 19.8249Z" fill="black"/>
<path d="M32.7612 29.0176C30.9453 27.1559 28.4087 26 25.6025 26C22.7661 26 20.2056 27.1808 18.3857 29.0777L25.5435 36.2354L32.7612 29.0176Z" fill="black"/>
</g>
</svg>
